# xmcd
#
# Track frame offsets: 
#        150
#        8477
#        34107
#        50997
#        60047
#        70699
#        99454
#        115431
#        190929
#        191417
#        207165
#        263922
#
# Disc length: 3637 seconds
#
# Revision: 1
# Processed by: cddbd v1.5.2PL0 Copyright (c) Steve Scherf et al.
# Submitted via: ExactAudioCopy v1.3
#
DISCID=9f0e330c
DTITLE=The Doors - Live in New York - Felt Forum [CD5)
DYEAR=1970
DGENRE=Rock
TTITLE0=(Start Of Show 4) (Sun. Eve. Jan. 18 1970 - Fourth Show)
TTITLE1=Roadhouse Blues (Sun. Eve. Jan. 18 1970 - Fourth Show)
TTITLE2=Peace Frog (Sun. Eve. Jan. 18 1970 - Fourth Show)
TTITLE3=Alabama Song (Whisky Bar) (Sun. Eve. Jan. 18 1970 - Fourth Sho
TTITLE3=w)
TTITLE4=Back Door Man (Sun. Eve. Jan. 18 1970 - Fourth Show)
TTITLE5=Five To One (Sun. Eve. Jan. 18 1970 - Fourth Show)
TTITLE6=(We Have A Special Treat) (Sun. Eve. Jan. 18 1970 - Fourth Sho
TTITLE6=w)
TTITLE7=Celebration Of The Lizard (Sun. Eve. Jan. 18 1970 - Fourth Sho
TTITLE7=w)
TTITLE8=(Alright Let's Boogie) (Sun. Eve. Jan. 18 1970 - Fourth Show)
TTITLE9=Build Me A Woman (Sun. Eve. Jan. 18 1970 - Fourth Show)
TTITLE10=When The Music's Over (Sun. Eve. Jan. 18 1970 - Fourth Show)
TTITLE11=(More, More, More) (Sun. Eve. Jan. 18 1970 - Fourth Show)
EXTD=
EXTT0=
EXTT1=
EXTT2=
EXTT3=
EXTT4=
EXTT5=
EXTT6=
EXTT7=
EXTT8=
EXTT9=
EXTT10=
EXTT11=
PLAYORDER=
